<?xml version="1.0" encoding="UTF-8" standalone="no"?>
<!DOCTYPE svg PUBLIC "-//W3C//DTD SVG 1.1//EN" "http://www.w3.org/Graphics/SVG/1.1/DTD/svg11.dtd">
<svg version="1.1" xmlns="http://www.w3.org/2000/svg" xmlns:xlink="http://www.w3.org/1999/xlink" preserveAspectRatio="xMidYMid meet" viewBox="0 0 640 640" width="640" height="640"><defs><path d="M497.76 452.29C501.43 454.45 503.73 455.8 504.64 456.34C523.79 467.6 546.37 471.51 568.18 467.34C574.61 466.11 563.59 468.22 570.9 466.82C588.91 463.38 603.4 449.99 608.25 432.31C619.61 390.92 606.66 438.09 608.25 432.31C641.43 311.42 586.12 183.71 475.25 125.2C475.25 125.2 475.25 125.2 475.25 125.2" id="g1hQAsKOIA"></path><path d="M485.17 174.82L483.73 176.83L482.22 178.77L480.64 180.63L479.01 182.41L477.31 184.12L475.55 185.75L473.74 187.31L471.87 188.78L469.96 190.18L467.99 191.5L465.99 192.73L463.94 193.89L461.85 194.96L459.72 195.96L457.56 196.87L455.37 197.69L453.15 198.43L450.91 199.09L448.64 199.65L446.35 200.14L444.04 200.53L441.72 200.84L439.38 201.05L437.04 201.18L434.68 201.22L432.33 201.16L429.97 201.02L427.61 200.78L425.25 200.44L422.9 200.02L420.56 199.5L418.23 198.88L415.92 198.17L413.62 197.36L411.34 196.45L409.09 195.44L406.85 194.34L404.65 193.13L402.5 191.84L400.41 190.47L398.41 189.03L396.47 187.52L394.61 185.95L392.83 184.31L391.12 182.61L389.49 180.85L387.93 179.04L386.46 177.17L385.06 175.26L383.74 173.3L382.5 171.29L381.35 169.24L380.31 167.22C379.93 167.33 379.69 167.39 379.6 167.42C370.44 169.9 364.96 157.55 372.94 152.42C372.94 152.42 372.94 152.42 372.94 152.42L374.18 144.6L374.06 142.34L374.02 139.98L374.08 137.63L374.22 135.27L374.46 132.91L374.79 130.55L375.22 128.2L375.74 125.86L376.36 123.53L377.07 121.22L377.88 118.92L378.79 116.64L379.8 114.39L380.9 112.16L382.11 109.95L383.4 107.8L384.77 105.72L386.21 103.71L387.72 101.77L389.29 99.91L390.93 98.13L392.63 96.42L394.39 94.79L396.2 93.23L398.06 91.76L399.98 90.36L401.94 89.04L403.95 87.81L406 86.65L408.09 85.57L410.21 84.58L412.37 83.67L414.56 82.85L416.78 82.11L419.03 81.45L421.3 80.88L423.59 80.4L425.9 80.01L428.22 79.7L430.55 79.49L432.9 79.36L435.25 79.32L437.61 79.38L439.97 79.52L442.33 79.76L444.68 80.1L447.03 80.52L449.37 81.04L451.7 81.66L454.02 82.37L456.32 83.18L458.59 84.09L460.85 85.1L463.08 86.2L465.29 87.41L467.44 88.7L469.52 90.07L471.53 91.51L473.46 93.02L475.32 94.59L477.11 96.23L478.82 97.93L480.45 99.69L482 101.5L483.48 103.37L484.88 105.28L486.2 107.24L487.43 109.25L488.59 111.3L489.66 113.39L490.66 115.51L491.56 117.67L492.39 119.87L493.13 122.09L493.78 124.33L494.35 126.6L494.83 128.89L495.23 131.2L495.53 133.52L495.75 135.86L495.88 138.2L495.92 140.55L495.86 142.91L495.71 145.27L495.48 147.63L495.14 149.99L494.72 152.34L494.19 154.68L493.58 157L492.86 159.32L492.05 161.62L491.15 163.9L490.14 166.15L489.03 168.38L487.83 170.59L486.53 172.74L485.17 174.82ZM469.01 156.24L469.63 154.85L470.19 153.44L470.69 152.02L471.13 150.6L471.51 149.16L471.83 147.71L472.1 146.26L472.3 144.81L472.45 143.36L472.54 141.9L472.57 140.45L472.55 138.99L472.47 137.55L472.34 136.11L472.15 134.67L471.91 133.25L471.61 131.84L471.26 130.44L470.85 129.05L470.4 127.68L469.89 126.33L469.33 125L468.72 123.68L468.05 122.39L467.34 121.13L466.58 119.89L465.76 118.68L464.9 117.5L463.99 116.35L463.03 115.23L462.02 114.15L460.97 113.1L459.87 112.09L458.72 111.12L457.53 110.18L456.29 109.3L455 108.45L453.68 107.65L452.32 106.91L450.94 106.23L449.55 105.61L448.14 105.05L446.72 104.55L445.29 104.11L443.86 103.73L442.41 103.4L440.96 103.14L439.51 102.94L438.05 102.79L436.6 102.7L435.14 102.66L433.69 102.69L432.25 102.76L430.8 102.9L429.37 103.09L427.95 103.33L426.53 103.63L425.13 103.98L423.75 104.38L422.38 104.84L421.03 105.35L419.69 105.91L418.38 106.52L417.09 107.18L415.83 107.9L414.59 108.66L413.38 109.47L412.2 110.34L411.05 111.25L409.93 112.21L408.84 113.21L407.8 114.27L406.79 115.37L405.81 116.52L404.88 117.71L404 118.95L403.15 120.23L402.35 121.56L401.61 122.92L400.93 124.3L400.31 125.69L399.75 127.1L399.25 128.52L398.8 129.94L398.42 131.38L398.1 132.83L397.84 134.27L397.63 135.73L397.49 137.18L397.4 138.64L397.36 140.09L397.38 141.55L397.46 142.99L397.6 144.43L397.79 145.87L398.03 147.29L398.33 148.7L398.68 150.1L399.08 151.49L399.54 152.86L400.05 154.21L400.61 155.54L401.22 156.86L401.88 158.14L402.6 159.41L403.36 160.65L404.17 161.86L405.04 163.04L405.95 164.19L406.91 165.31L407.91 166.39L408.97 167.44L410.07 168.45L411.22 169.42L412.41 170.35L413.65 171.24L414.93 172.09L416.26 172.89L417.62 173.63L419 174.31L420.39 174.93L421.8 175.49L423.21 175.99L424.64 176.43L426.08 176.81L427.52 177.14L428.97 177.4L430.43 177.6L431.88 177.75L433.34 177.84L434.79 177.88L436.24 177.85L437.69 177.77L439.13 177.64L440.57 177.45L441.99 177.21L443.4 176.91L444.8 176.56L446.19 176.16L447.56 175.7L448.91 175.19L450.24 174.63L451.55 174.02L452.84 173.35L454.11 172.64L455.35 171.88L456.56 171.06L457.74 170.2L458.89 169.29L460.01 168.33L461.09 167.33L462.14 166.27L463.15 165.17L464.12 164.02L465.05 162.83L465.94 161.59L466.79 160.31L467.58 158.98L468.33 157.62L469.01 156.24Z" id="dWd3XhtQb"></path><path d="M457.5 194.79C457.5 277.58 390.29 344.79 307.5 344.79C224.72 344.79 157.5 277.58 157.5 194.79C157.5 112 224.72 44.79 307.5 44.79C390.29 44.79 457.5 112 457.5 194.79Z" id="bZbJrTeWE"></path><mask id="maska63qceq7T" x="137.5" y="24.79" width="340" height="340" maskUnits="userSpaceOnUse"><rect x="137.5" y="24.79" width="340" height="340" fill="white"></rect><use xlink:href="#bZbJrTeWE" opacity="1" fill="black"></use></mask><path d="M432.5 194.79C432.5 263.78 376.49 319.79 307.5 319.79C238.51 319.79 182.5 263.78 182.5 194.79C182.5 125.8 238.51 69.79 307.5 69.79C376.49 69.79 432.5 125.8 432.5 194.79Z" id="aah6z7tFrJ"></path><radialGradient id="gradienta32ZnNGZTT" gradientUnits="userSpaceOnUse" cx="343.96" cy="163.54" dx="251.25" dy="290.62" r="157.31"><stop style="stop-color: #abe5ff;stop-opacity: 1" offset="0%"></stop><stop style="stop-color: #6270fc;stop-opacity: 1" offset="100%"></stop></radialGradient><mask id="maskbuMFrG8qi" x="162.5" y="49.79" width="290" height="290" maskUnits="userSpaceOnUse"><rect x="162.5" y="49.79" width="290" height="290" fill="white"></rect><use xlink:href="#aah6z7tFrJ" opacity="1" fill="black"></use></mask><path d="M457.97 346.15L460.42 346.46L462.84 346.87L465.23 347.37L467.57 347.97L469.88 348.65L472.15 349.43L474.38 350.28L476.57 351.22L478.71 352.25L480.8 353.35L482.84 354.53L484.83 355.78L486.77 357.11L488.65 358.51L490.47 359.98L492.24 361.52L493.94 363.12L495.59 364.79L497.16 366.52L498.67 368.3L500.12 370.15L501.49 372.05L502.79 374L504.01 376.01L505.16 378.06L506.23 380.16L507.22 382.31L508.13 384.5L508.95 386.73L509.69 389L510.35 391.31L510.91 393.65L511.38 396.03L511.75 398.43L512.04 400.87L512.22 403.33L512.31 405.82L512.29 408.33L512.17 410.84L511.96 413.33L511.64 415.78L511.23 418.19L510.73 420.58L510.13 422.93L509.45 425.24L508.68 427.51L507.82 429.74L506.88 431.92L505.86 434.06L504.75 436.15L503.57 438.19L502.32 440.18L501.04 442.05C501.04 442.05 501.04 442.05 501.04 442.05C507.25 448.6 499.25 458.72 491.44 454.18C491.23 454.06 490.7 453.75 489.86 453.26L484.03 458.18L482.1 459.36L480.04 460.51L477.94 461.58L475.8 462.57L473.61 463.48L471.37 464.31L469.1 465.05L466.8 465.7L464.45 466.26L462.08 466.73L459.67 467.11L457.23 467.39L454.77 467.57L452.28 467.66L449.77 467.64L447.26 467.53L444.78 467.31L442.33 467L439.91 466.59L437.52 466.08L435.18 465.49L432.87 464.8L430.6 464.03L428.37 463.17L426.18 462.23L424.04 461.21L421.95 460.11L419.91 458.93L417.92 457.67L415.98 456.34L414.1 454.94L412.28 453.47L410.51 451.94L408.81 450.33L407.16 448.67L405.59 446.94L404.08 445.15L402.63 443.31L401.26 441.41L399.96 439.45L398.74 437.45L397.59 435.4L396.52 433.3L395.53 431.15L394.62 428.96L393.8 426.73L393.06 424.46L392.4 422.15L391.84 419.81L391.37 417.43L391 415.02L390.71 412.59L390.53 410.12L390.44 407.63L390.46 405.12L390.58 402.61L390.79 400.13L391.11 397.68L391.52 395.26L392.02 392.88L392.62 390.53L393.3 388.22L394.07 385.95L394.93 383.72L395.87 381.54L396.89 379.4L398 377.31L399.18 375.26L400.43 373.27L401.76 371.34L403.16 369.46L404.63 367.63L406.17 365.86L407.77 364.16L409.44 362.52L411.16 360.94L412.95 359.43L414.8 357.99L416.7 356.62L418.65 355.32L420.65 354.09L422.71 352.94L424.81 351.87L426.95 350.88L429.14 349.97L431.38 349.15L433.65 348.41L435.95 347.76L438.3 347.2L440.67 346.73L443.08 346.35L445.52 346.07L447.98 345.88L450.47 345.8L452.98 345.81L455.49 345.93L457.97 346.15ZM449.28 369.18L447.76 369.3L446.26 369.47L444.77 369.71L443.3 370L441.86 370.34L440.44 370.74L439.03 371.2L437.66 371.71L436.31 372.27L434.98 372.88L433.69 373.54L432.42 374.25L431.18 375.01L429.98 375.81L428.8 376.65L427.67 377.54L426.56 378.48L425.5 379.45L424.47 380.46L423.48 381.51L422.53 382.6L421.63 383.73L420.76 384.89L419.94 386.09L419.17 387.31L418.44 388.57L417.76 389.86L417.13 391.18L416.55 392.53L416.02 393.91L415.54 395.31L415.12 396.73L414.75 398.18L414.44 399.65L414.19 401.15L413.99 402.66L413.86 404.19L413.79 405.74L413.78 407.29L413.83 408.82L413.95 410.34L414.12 411.85L414.35 413.33L414.64 414.8L414.99 416.24L415.39 417.67L415.85 419.07L416.36 420.45L416.92 421.8L417.53 423.12L418.19 424.42L418.9 425.68L419.65 426.92L420.45 428.13L421.3 429.3L422.19 430.44L423.12 431.54L424.1 432.6L425.11 433.63L426.16 434.62L427.25 435.57L428.38 436.48L429.54 437.34L430.73 438.16L431.96 438.94L433.22 439.66L434.51 440.34L435.83 440.98L437.18 441.56L438.55 442.09L439.95 442.56L441.38 442.98L442.83 443.35L444.3 443.66L445.79 443.91L447.3 444.11L448.84 444.24L450.38 444.31L451.93 444.32L453.47 444.27L454.99 444.16L456.49 443.98L457.98 443.75L459.45 443.46L460.89 443.11L462.31 442.71L463.72 442.26L465.09 441.75L466.44 441.19L467.77 440.57L469.06 439.91L470.33 439.21L471.57 438.45L472.77 437.65L473.95 436.8L475.08 435.91L476.19 434.98L477.25 434.01L478.28 432.99L479.27 431.94L480.22 430.85L481.12 429.73L481.99 428.57L482.81 427.37L483.58 426.14L484.31 424.88L484.99 423.59L485.62 422.27L486.2 420.92L486.73 419.55L487.21 418.15L487.63 416.72L488 415.27L488.31 413.8L488.56 412.31L488.76 410.8L488.89 409.27L488.96 407.72L488.97 406.17L488.92 404.63L488.8 403.11L488.63 401.61L488.4 400.12L488.11 398.66L487.76 397.21L487.36 395.79L486.9 394.39L486.39 393.01L485.83 391.66L485.22 390.34L484.56 389.04L483.85 387.77L483.1 386.53L482.3 385.33L481.45 384.16L480.56 383.02L479.63 381.92L478.65 380.85L477.64 379.82L476.59 378.83L475.5 377.89L474.37 376.98L473.21 376.11L472.02 375.29L470.79 374.52L469.53 373.79L468.24 373.11L466.92 372.48L465.57 371.9L464.2 371.37L462.8 370.89L461.37 370.47L459.92 370.1L458.45 369.79L456.96 369.54L455.45 369.35L453.91 369.21L452.37 369.14L450.82 369.13L449.28 369.18Z" id="b37gR5PEy2"></path><path d="M376.9 122.26C376.9 128.88 373.4 143.97 369.08 143.97C364.77 143.97 361.27 128.88 361.27 122.26C361.27 115.63 364.77 99.17 369.08 99.17C373.4 99.17 376.9 115.63 376.9 122.26Z" id="c5szf6AI4"></path><radialGradient id="gradientb6Qoi8269y" gradientUnits="userSpaceOnUse" cx="369.08" cy="121.57" dx="369.08" dy="140.27" r="18.7"><stop style="stop-color: #ffffff;stop-opacity: 1" offset="0%"></stop><stop style="stop-color: #f8ebdb;stop-opacity: 1" offset="100%"></stop></radialGradient><path d="M368.39 129.38C361.77 129.38 346.68 125.88 346.68 121.57C346.68 117.26 361.77 113.75 368.39 113.75C375.02 113.75 391.48 117.25 391.48 121.57C391.49 125.88 375.02 129.38 368.39 129.38Z" id="fHnyDKdWt"></path><radialGradient id="gradientaCx7Hgvs" gradientUnits="userSpaceOnUse" cx="369.08" cy="121.57" dx="350.38" dy="121.57" r="18.7"><stop style="stop-color: #ffffff;stop-opacity: 1" offset="0%"></stop><stop style="stop-color: #f8ebdb;stop-opacity: 1" offset="100%"></stop></radialGradient></defs><g><g><g><g><g><use xlink:href="#g1hQAsKOIA" opacity="1" fill-opacity="0" stroke="#000000" stroke-width="10" stroke-opacity="1"></use></g></g><g><use xlink:href="#dWd3XhtQb" opacity="1" fill="#55586f" fill-opacity="1"></use><g><use xlink:href="#dWd3XhtQb" opacity="1" fill-opacity="0" stroke="#000000" stroke-width="10" stroke-opacity="1"></use></g></g><g><use xlink:href="#bZbJrTeWE" opacity="1" fill="#55586f" fill-opacity="1"></use><g mask="url(#maska63qceq7T)"><use xlink:href="#bZbJrTeWE" opacity="1" fill-opacity="0" stroke="#000000" stroke-width="20" stroke-opacity="1"></use></g></g><g><use xlink:href="#aah6z7tFrJ" opacity="1" fill="url(#gradienta32ZnNGZTT)"></use><g mask="url(#maskbuMFrG8qi)"><use xlink:href="#aah6z7tFrJ" opacity="1" fill-opacity="0" stroke="#000000" stroke-width="20" stroke-opacity="1"></use></g></g><g><use xlink:href="#b37gR5PEy2" opacity="1" fill="#55586f" fill-opacity="1"></use><g><use xlink:href="#b37gR5PEy2" opacity="1" fill-opacity="0" stroke="#000000" stroke-width="10" stroke-opacity="1"></use></g></g><g><use xlink:href="#c5szf6AI4" opacity="1" fill="url(#gradientb6Qoi8269y)"></use></g><g><use xlink:href="#fHnyDKdWt" opacity="1" fill="url(#gradientaCx7Hgvs)"></use></g></g></g></g></svg>