<?xml version="1.0" encoding="UTF-8" standalone="no"?>
<!DOCTYPE svg PUBLIC "-//W3C//DTD SVG 1.1//EN" "http://www.w3.org/Graphics/SVG/1.1/DTD/svg11.dtd">
<svg version="1.1" xmlns="http://www.w3.org/2000/svg" xmlns:xlink="http://www.w3.org/1999/xlink" preserveAspectRatio="xMidYMid meet" viewBox="0 0 640 640" width="640" height="640"><defs><path d="M438.36 489.92C442.03 492.07 444.32 493.42 445.24 493.96C464.38 505.23 486.97 509.14 508.78 504.96C515.21 503.73 504.18 505.84 511.49 504.44C529.51 501 543.99 487.62 548.84 469.93C560.2 428.54 547.26 475.71 548.84 469.93C582.03 349.04 526.72 221.33 415.84 162.82C415.84 162.82 415.84 162.82 415.84 162.82" id="c3Tj6ACxSj"></path><path d="M425.76 212.45L424.32 214.46L422.81 216.39L421.24 218.25L419.6 220.03L417.9 221.74L416.14 223.37L414.33 224.93L412.47 226.41L410.55 227.8L408.59 229.12L406.58 230.36L404.53 231.51L402.44 232.59L400.32 233.58L398.16 234.49L395.97 235.31L393.75 236.05L391.5 236.71L389.23 237.28L386.94 237.76L384.63 238.15L382.31 238.46L379.98 238.68L377.63 238.8L375.28 238.84L372.92 238.79L370.56 238.64L368.2 238.4L365.85 238.07L363.5 237.64L361.16 237.12L358.83 236.5L356.51 235.79L354.21 234.98L351.94 234.07L349.68 233.06L347.45 231.96L345.24 230.75L343.09 229.46L341.01 228.09L339 226.65L337.07 225.14L335.21 223.57L333.42 221.93L331.71 220.23L330.08 218.48L328.53 216.66L327.05 214.8L325.65 212.88L324.34 210.92L323.1 208.91L321.94 206.86L320.9 204.85C320.52 204.95 320.29 205.01 320.19 205.04C311.04 207.52 305.55 195.18 313.53 190.05C313.53 190.05 313.53 190.05 313.53 190.05L314.77 182.23L314.65 179.96L314.61 177.61L314.67 175.25L314.82 172.89L315.06 170.53L315.39 168.18L315.81 165.83L316.34 163.49L316.95 161.16L317.67 158.84L318.48 156.55L319.38 154.27L320.39 152.01L321.5 149.78L322.7 147.57L324 145.42L325.36 143.34L326.8 141.33L328.31 139.4L329.89 137.54L331.52 135.75L333.22 134.04L334.98 132.41L336.79 130.86L338.66 129.38L340.57 127.98L342.54 126.67L344.54 125.43L346.59 124.27L348.68 123.2L350.81 122.21L352.97 121.3L355.16 120.47L357.38 119.73L359.62 119.08L361.89 118.51L364.18 118.03L366.49 117.63L368.81 117.33L371.15 117.11L373.49 116.98L375.85 116.95L378.2 117L380.56 117.15L382.92 117.39L385.28 117.72L387.63 118.15L389.97 118.67L392.3 119.28L394.61 120L396.91 120.81L399.19 121.72L401.45 122.72L403.68 123.83L405.88 125.03L408.03 126.33L410.12 127.7L412.12 129.14L414.06 130.64L415.92 132.22L417.7 133.86L419.41 135.55L421.04 137.31L422.6 139.12L424.07 140.99L425.47 142.9L426.79 144.87L428.03 146.87L429.18 148.92L430.26 151.01L431.25 153.14L432.16 155.3L432.98 157.49L433.72 159.71L434.38 161.95L434.95 164.22L435.43 166.51L435.82 168.82L436.13 171.14L436.35 173.48L436.47 175.83L436.51 178.18L436.46 180.54L436.31 182.9L436.07 185.25L435.74 187.61L435.31 189.96L434.79 192.3L434.17 194.63L433.46 196.94L432.65 199.24L431.74 201.52L430.73 203.78L429.63 206.01L428.42 208.21L427.13 210.37L425.76 212.45ZM409.6 193.86L410.23 192.47L410.79 191.07L411.29 189.65L411.73 188.22L412.11 186.78L412.43 185.34L412.69 183.89L412.9 182.44L413.04 180.98L413.13 179.52L413.17 178.07L413.15 176.62L413.07 175.17L412.93 173.73L412.74 172.3L412.5 170.87L412.2 169.46L411.85 168.06L411.45 166.67L410.99 165.3L410.48 163.95L409.92 162.62L409.31 161.31L408.65 160.02L407.93 158.75L407.17 157.52L406.36 156.3L405.49 155.12L404.58 153.97L403.62 152.85L402.62 151.77L401.56 150.72L400.46 149.71L399.32 148.74L398.12 147.81L396.88 146.92L395.6 146.08L394.27 145.28L392.91 144.53L391.53 143.85L390.14 143.23L388.73 142.67L387.32 142.17L385.89 141.73L384.45 141.35L383.01 141.03L381.56 140.76L380.1 140.56L378.65 140.41L377.19 140.32L375.74 140.29L374.29 140.31L372.84 140.39L371.4 140.52L369.96 140.71L368.54 140.95L367.13 141.25L365.73 141.6L364.34 142.01L362.97 142.46L361.62 142.97L360.29 143.53L358.98 144.15L357.69 144.81L356.42 145.52L355.18 146.29L353.97 147.1L352.79 147.96L351.64 148.87L350.52 149.83L349.44 150.84L348.39 151.89L347.38 152.99L346.41 154.14L345.48 155.33L344.59 156.57L343.75 157.86L342.95 159.19L342.2 160.55L341.52 161.92L340.9 163.32L340.34 164.72L339.84 166.14L339.4 167.57L339.02 169L338.7 170.45L338.43 171.9L338.23 173.35L338.08 174.81L337.99 176.26L337.96 177.72L337.98 179.17L338.06 180.62L338.19 182.06L338.38 183.49L338.62 184.92L338.92 186.33L339.27 187.73L339.68 189.11L340.13 190.48L340.64 191.84L341.2 193.17L341.81 194.48L342.48 195.77L343.19 197.03L343.95 198.27L344.77 199.48L345.63 200.66L346.54 201.82L347.5 202.93L348.51 204.02L349.56 205.07L350.66 206.08L351.81 207.05L353 207.98L354.24 208.87L355.53 209.71L356.85 210.51L358.21 211.25L359.59 211.94L360.98 212.56L362.39 213.12L363.81 213.62L365.24 214.06L366.67 214.44L368.12 214.76L369.57 215.02L371.02 215.23L372.48 215.38L373.93 215.47L375.39 215.5L376.84 215.48L378.29 215.4L379.73 215.26L381.16 215.08L382.58 214.83L384 214.54L385.4 214.18L386.78 213.78L388.15 213.32L389.5 212.81L390.84 212.25L392.15 211.64L393.44 210.98L394.7 210.27L395.94 209.5L397.15 208.69L398.33 207.83L399.48 206.92L400.6 205.96L401.69 204.95L402.73 203.9L403.75 202.79L404.72 201.65L405.65 200.45L406.54 199.21L407.38 197.93L408.18 196.6L408.92 195.24L409.6 193.86Z" id="c2dQnjeKuz"></path><path d="M398.1 232.42C398.1 315.2 330.88 382.42 248.1 382.42C165.31 382.42 98.1 315.2 98.1 232.42C98.1 149.63 165.31 82.42 248.1 82.42C330.88 82.42 398.1 149.63 398.1 232.42Z" id="a36pUMRgRC"></path><mask id="maskf4kwmG8Ahz" x="78.1" y="62.42" width="340" height="340" maskUnits="userSpaceOnUse"><rect x="78.1" y="62.42" width="340" height="340" fill="white"></rect><use xlink:href="#a36pUMRgRC" opacity="1" fill="black"></use></mask><path d="M373.09 232.41C373.09 301.4 317.08 357.41 248.09 357.41C179.1 357.41 123.09 301.4 123.09 232.41C123.09 163.42 179.1 107.41 248.09 107.41C317.08 107.41 373.09 163.42 373.09 232.41Z" id="cYyGLSwNZ"></path><mask id="maskasgVrk6Nr" x="103.09" y="87.41" width="290" height="290" maskUnits="userSpaceOnUse"><rect x="103.09" y="87.41" width="290" height="290" fill="white"></rect><use xlink:href="#cYyGLSwNZ" opacity="1" fill="black"></use></mask><path d="M398.57 383.77L401.02 384.08L403.44 384.49L405.82 385L408.17 385.59L410.48 386.28L412.75 387.05L414.98 387.91L417.16 388.85L419.3 389.87L421.39 390.97L423.43 392.15L425.42 393.41L427.36 394.74L429.24 396.14L431.07 397.61L432.83 399.14L434.54 400.75L436.18 402.41L437.76 404.14L439.27 405.93L440.71 407.77L442.08 409.67L443.38 411.63L444.6 413.63L445.75 415.68L446.82 417.78L447.81 419.93L448.72 422.12L449.55 424.35L450.29 426.62L450.94 428.93L451.5 431.27L451.97 433.65L452.35 436.06L452.63 438.49L452.82 440.96L452.9 443.45L452.89 445.96L452.77 448.47L452.55 450.95L452.24 453.4L451.83 455.82L451.32 458.2L450.73 460.55L450.04 462.86L449.27 465.13L448.41 467.36L447.47 469.54L446.45 471.68L445.35 473.77L444.17 475.82L442.91 477.81L441.63 479.68C441.63 479.68 441.63 479.68 441.63 479.68C447.84 486.23 439.84 496.34 432.04 491.8C431.83 491.68 431.3 491.37 430.45 490.88L424.63 495.81L422.69 496.99L420.64 498.14L418.54 499.21L416.39 500.2L414.2 501.11L411.97 501.93L409.7 502.67L407.39 503.32L405.05 503.88L402.67 504.35L400.26 504.73L397.83 505.01L395.36 505.2L392.87 505.28L390.36 505.27L387.85 505.15L385.37 504.93L382.92 504.62L380.5 504.21L378.12 503.71L375.77 503.11L373.46 502.43L371.19 501.65L368.96 500.8L366.78 499.86L364.64 498.83L362.55 497.73L360.51 496.55L358.52 495.3L356.58 493.97L354.7 492.57L352.87 491.1L351.11 489.56L349.4 487.96L347.76 486.29L346.18 484.56L344.67 482.78L343.23 480.93L341.86 479.03L340.56 477.08L339.33 475.07L338.18 473.02L337.11 470.92L336.12 468.77L335.21 466.58L334.39 464.35L333.65 462.08L333 459.77L332.44 457.43L331.97 455.05L331.59 452.65L331.31 450.21L331.12 447.75L331.04 445.26L331.05 442.75L331.17 440.24L331.39 437.75L331.7 435.3L332.11 432.89L332.61 430.5L333.21 428.15L333.89 425.84L334.67 423.57L335.52 421.34L336.47 419.16L337.49 417.02L338.59 414.93L339.77 412.89L341.03 410.9L342.35 408.96L343.75 407.08L345.22 405.25L346.76 403.49L348.36 401.78L350.03 400.14L351.76 398.56L353.55 397.05L355.39 395.61L357.29 394.24L359.24 392.94L361.25 391.72L363.3 390.57L365.4 389.5L367.55 388.51L369.74 387.6L371.97 386.77L374.24 386.03L376.55 385.38L378.89 384.82L381.27 384.35L383.67 383.97L386.11 383.69L388.57 383.51L391.06 383.42L393.58 383.44L396.09 383.55L398.57 383.77ZM389.87 406.81L388.35 406.92L386.85 407.1L385.37 407.33L383.9 407.62L382.45 407.97L381.03 408.37L379.63 408.82L378.25 409.33L376.9 409.89L375.58 410.5L374.28 411.17L373.01 411.87L371.78 412.63L370.57 413.43L369.4 414.28L368.26 415.17L367.16 416.1L366.09 417.07L365.06 418.09L364.08 419.14L363.13 420.23L362.22 421.35L361.36 422.51L360.54 423.71L359.76 424.94L359.03 426.2L358.35 427.49L357.72 428.81L357.14 430.16L356.61 431.53L356.14 432.93L355.71 434.36L355.35 435.81L355.04 437.28L354.78 438.77L354.59 440.28L354.45 441.81L354.38 443.36L354.37 444.91L354.43 446.45L354.54 447.97L354.71 449.47L354.95 450.96L355.24 452.42L355.58 453.87L355.99 455.29L356.44 456.69L356.95 458.07L357.51 459.42L358.12 460.74L358.78 462.04L359.49 463.31L360.25 464.54L361.05 465.75L361.9 466.92L362.79 468.06L363.72 469.16L364.69 470.23L365.7 471.26L366.76 472.25L367.84 473.19L368.97 474.1L370.13 474.97L371.33 475.78L372.56 476.56L373.82 477.29L375.11 477.97L376.43 478.6L377.77 479.18L379.15 479.71L380.55 480.19L381.97 480.61L383.42 480.98L384.89 481.29L386.39 481.54L387.9 481.73L389.43 481.87L390.98 481.94L392.53 481.95L394.06 481.9L395.58 481.78L397.09 481.61L398.57 481.37L400.04 481.08L401.48 480.74L402.91 480.34L404.31 479.88L405.69 479.37L407.04 478.81L408.36 478.2L409.66 477.54L410.93 476.83L412.16 476.07L413.37 475.27L414.54 474.43L415.68 473.54L416.78 472.6L417.85 471.63L418.87 470.62L419.86 469.57L420.81 468.48L421.72 467.35L422.58 466.19L423.4 464.99L424.18 463.77L424.9 462.51L425.59 461.22L426.22 459.9L426.8 458.55L427.33 457.17L427.8 455.77L428.23 454.35L428.59 452.9L428.9 451.43L429.16 449.93L429.35 448.42L429.48 446.89L429.56 445.34L429.57 443.79L429.51 442.26L429.4 440.74L429.22 439.23L428.99 437.75L428.7 436.28L428.35 434.84L427.95 433.41L427.5 432.01L426.99 430.63L426.43 429.28L425.82 427.96L425.16 426.66L424.45 425.4L423.69 424.16L422.89 422.95L422.04 421.78L421.15 420.64L420.22 419.54L419.25 418.47L418.23 417.45L417.18 416.46L416.09 415.51L414.97 414.6L413.81 413.74L412.61 412.92L411.38 412.14L410.12 411.42L408.83 410.74L407.51 410.1L406.16 409.52L404.79 408.99L403.39 408.52L401.96 408.1L400.52 407.73L399.04 407.42L397.55 407.16L396.04 406.97L394.51 406.84L392.96 406.77L391.41 406.76L389.87 406.81Z" id="a2W96o5tMz"></path></defs><g><g><g><g><use xlink:href="#c3Tj6ACxSj" opacity="1" fill-opacity="0" stroke="#000000" stroke-width="10" stroke-opacity="1"></use></g></g><g><use xlink:href="#c2dQnjeKuz" opacity="1" fill="#aaaaaa" fill-opacity="1"></use><g><use xlink:href="#c2dQnjeKuz" opacity="1" fill-opacity="0" stroke="#000000" stroke-width="10" stroke-opacity="1"></use></g></g><g><use xlink:href="#a36pUMRgRC" opacity="1" fill="#aaaaaa" fill-opacity="1"></use><g mask="url(#maskf4kwmG8Ahz)"><use xlink:href="#a36pUMRgRC" opacity="1" fill-opacity="0" stroke="#000000" stroke-width="20" stroke-opacity="1"></use></g></g><g><use xlink:href="#cYyGLSwNZ" opacity="1" fill="#aaaaaa" fill-opacity="1"></use><g mask="url(#maskasgVrk6Nr)"><use xlink:href="#cYyGLSwNZ" opacity="1" fill-opacity="0" stroke="#000000" stroke-width="20" stroke-opacity="1"></use></g></g><g><use xlink:href="#a2W96o5tMz" opacity="1" fill="#aaaaaa" fill-opacity="1"></use><g><use xlink:href="#a2W96o5tMz" opacity="1" fill-opacity="0" stroke="#000000" stroke-width="10" stroke-opacity="1"></use></g></g></g></g></svg>